<svg id="Layer_1" data-name="Layer 1" xmlns="http://www.w3.org/2000/svg" width="800" height="800" viewBox="0 0 800 800"><defs><style>.cls-1{fill:#ffd500;}.cls-2{fill:#002840;}.cls-3{fill:none;}</style></defs><title>bloomreach-logo-freelogovectors.net_</title><circle class="cls-1" cx="400" cy="400" r="368.87"/><path class="cls-2" d="M474.76,323.39l-18.07,46a67.55,67.55,0,0,1,31.11,57.89,65.51,65.51,0,1,1-68.4-67.47l17-47.13c-68.37-9.06-131.1,39.87-131.1,111.54l-.14-.07V542.68h51.69v-18.6a120.2,120.2,0,0,0,65.48,18.6,115.56,115.56,0,0,0,52.45-219.29Z"/><path class="cls-2" d="M305.15,317.76a158.67,158.67,0,0,1,51.59-35.06V208.46H305.15Z"/><rect class="cls-3" width="800" height="800"/></svg>