<svg width="70" height="30" viewBox="0 0 70 30" fill="none" xmlns="http://www.w3.org/2000/svg">
<path d="M10 18.9799C15.2081 18.9799 26.6685 15.2642 27.4488 9.02105C27.5324 8.35274 27.815 5.16942 27.1714 5.0264C25.398 4.63231 23.2351 5.10272 21.873 6.21925C18.3313 9.12223 14.8712 19.9786 22.0394 19.9786C27.1895 19.9786 32.5157 15.8659 36.5 13C39.3129 11.2617 42.2749 8.67367 45 7C46.1385 6.30075 47 5.5 49 4" stroke="#D9C8B5" stroke-width="3" stroke-linecap="round"/>
<path d="M10 18.9799C15.2081 18.9799 26.6685 15.2642 27.4488 9.02105C27.5324 8.35274 27.815 5.16942 27.1714 5.0264C25.398 4.63231 23.2351 5.10272 21.873 6.21925C18.3313 9.12223 14.8712 19.9786 22.0394 19.9786C27.1895 19.9786 32.5157 15.8659 36.5 13C39.3129 11.2617 42.2749 8.67367 45 7C46.1385 6.30075 47 5.5 49 4" stroke="#D9C8B5" stroke-width="3" stroke-linecap="round"/>
<path d="M55.1048 9.25554C44.0177 15.7555 47.1982 20.6516 47.5 21.5C48 22.9058 49.5 23.5 50.5 23.5C52.5 23.5 53.8952 22.7445 55.5 22C60 19.5 62.273 9.25554 55.1048 9.25554ZM55.1048 9.25554C49.9547 9.25554 44.9414 13.6299 40.9571 16.4958C38.3631 18.3616 35.8038 20.1761 33.0787 21.8498C31.9402 22.549 29.5 24 28 25" stroke="#0D0F12" stroke-width="3" stroke-linecap="round"/>
</svg>
